<svg width="120" height="37" viewBox="0 0 120 37" fill="none" xmlns="http://www.w3.org/2000/svg">
<rect width="120" height="37" fill="#9D9D9D"/>
<rect width="393" height="852" transform="translate(-26 -71)" fill="white"/>
<g filter="url(#filter0_d_0_1)">
<path d="M5.15047 11.8421V10.9782H14.7459C15.7 10.9783 16.6447 11.1662 17.5261 11.5312C18.4076 11.8963 19.2084 12.4312 19.883 13.1056C20.5576 13.7799 21.0926 14.5804 21.4576 15.4614C21.8226 16.3425 22.0104 17.2867 22.0103 18.2402V19.1169H23.1635V18.2066C23.1635 17.1058 22.9466 16.0158 22.525 14.9988C22.1035 13.9818 21.4857 13.0577 20.7068 12.2794C19.9279 11.501 19.0033 10.8837 17.9857 10.4625C16.968 10.0413 15.8774 9.8246 14.776 9.82471H4.41446C4.36003 9.82471 4.30614 9.83543 4.25585 9.85625C4.20557 9.87706 4.15988 9.90757 4.12139 9.94604C4.08291 9.9845 4.05238 10.0302 4.03155 10.0804C4.01072 10.1307 4 10.1845 4 10.2389V19.4793C4 19.615 4.05394 19.7451 4.14994 19.8411C4.24595 19.937 4.37616 19.9909 4.51193 19.9909H11.4166C11.6253 19.991 11.832 20.0322 12.0248 20.1122C12.2176 20.1921 12.3927 20.3092 12.5402 20.4568C12.6878 20.6044 12.8047 20.7796 12.8845 20.9724C12.9643 21.1652 13.0053 21.3718 13.0052 21.5804V28.4456C13.0054 28.5828 13.0601 28.7143 13.1573 28.8113C13.2545 28.9082 13.3862 28.9627 13.5235 28.9627H22.6461C22.7833 28.9624 22.9147 28.9079 23.0117 28.811C23.1087 28.714 23.1633 28.5827 23.1635 28.4456V20.0182H22.0103V27.812H21.2962H20.143H14.1584V21.3993C14.1584 20.7203 13.8885 20.0692 13.4081 19.5891C12.9278 19.109 12.2762 18.8393 11.5969 18.8393H5.15047V12.9947" fill="#092652"/>
<path d="M22.1081 19.1187H23.019V17.9661H22.14C20.4726 17.9656 18.856 17.3924 17.5611 16.3427C16.2661 15.2929 15.3714 13.8303 15.0268 12.1998H13.8481C14.1926 14.139 15.2091 15.8951 16.7194 17.1602C18.2298 18.4253 20.1375 19.1186 22.1081 19.1187Z" fill="#092652"/>
<path d="M21.9948 9.38408V2.51801C21.9949 2.45002 21.9816 2.38268 21.9557 2.31984C21.9298 2.257 21.8917 2.19989 21.8436 2.15177C21.7956 2.10366 21.7385 2.06549 21.6756 2.03945C21.6128 2.01341 21.5455 2 21.4774 2H12.3548C12.2867 2 12.2194 2.01341 12.1566 2.03945C12.0937 2.06549 12.0366 2.10366 11.9886 2.15177C11.9405 2.19989 11.9024 2.257 11.8765 2.31984C11.8505 2.38268 11.8373 2.45002 11.8374 2.51801V12.7552C11.8373 13.8561 12.0541 14.9462 12.4756 15.9633C12.8971 16.9804 13.5149 17.9045 14.2938 18.683C15.0727 19.4614 15.9973 20.0789 17.015 20.5001C18.0327 20.9213 19.1234 21.1381 20.2249 21.138H30.5855C30.6954 21.138 30.8009 21.0943 30.8786 21.0166C30.9563 20.939 31 20.8336 31 20.7237V11.4834C31 11.3481 30.9463 11.2183 30.8506 11.1226C30.755 11.0268 30.6253 10.9729 30.4899 10.9727H23.5843C23.1628 10.9727 22.7585 10.8053 22.4604 10.5074C22.1623 10.2095 21.9948 9.8054 21.9948 9.38408ZM29.8468 17.9689H23.8449V19.1215H29.8468V19.9854H20.2559C19.3016 19.9854 18.3566 19.7975 17.475 19.4324C16.5933 19.0674 15.7923 18.5323 15.1176 17.8577C14.4429 17.1832 13.9078 16.3824 13.5428 15.5011C13.1779 14.6198 12.9902 13.6753 12.9906 12.7215V3.15163H13.7047V9.02994H14.8579V3.15163H20.8416V9.56342C20.8416 9.89968 20.9079 10.2326 21.0367 10.5433C21.1655 10.8539 21.3542 11.1362 21.5922 11.3739C21.8301 11.6117 22.1126 11.8002 22.4235 11.9288C22.7344 12.0574 23.0675 12.1235 23.404 12.1234H29.8468V17.9689Z" fill="#E74C3C"/>
<path d="M41.78 20.16H46.48V22H39.5V8.1H41.78V20.16ZM49.5467 9.52C49.1334 9.52 48.7867 9.38 48.5067 9.1C48.2267 8.82 48.0867 8.47333 48.0867 8.06C48.0867 7.64667 48.2267 7.3 48.5067 7.02C48.7867 6.74 49.1334 6.6 49.5467 6.6C49.9467 6.6 50.2867 6.74 50.5667 7.02C50.8467 7.3 50.9867 7.64667 50.9867 8.06C50.9867 8.47333 50.8467 8.82 50.5667 9.1C50.2867 9.38 49.9467 9.52 49.5467 9.52ZM50.6667 10.98V22H48.3867V10.98H50.6667ZM58.2802 12.84H56.2402V22H53.9402V12.84H52.6402V10.98H53.9402V10.2C53.9402 8.93333 54.2735 8.01333 54.9402 7.44C55.6202 6.85333 56.6802 6.56 58.1202 6.56V8.46C57.4268 8.46 56.9402 8.59333 56.6602 8.86C56.3802 9.11333 56.2402 9.56 56.2402 10.2V10.98H58.2802V12.84ZM70.4008 16.22C70.4008 16.6333 70.3741 17.0067 70.3208 17.34H61.9008C61.9674 18.22 62.2941 18.9267 62.8808 19.46C63.4674 19.9933 64.1874 20.26 65.0408 20.26C66.2674 20.26 67.1341 19.7467 67.6408 18.72H70.1008C69.7674 19.7333 69.1608 20.5667 68.2808 21.22C67.4141 21.86 66.3341 22.18 65.0408 22.18C63.9874 22.18 63.0408 21.9467 62.2008 21.48C61.3741 21 60.7208 20.3333 60.2408 19.48C59.7741 18.6133 59.5408 17.6133 59.5408 16.48C59.5408 15.3467 59.7674 14.3533 60.2208 13.5C60.6874 12.6333 61.3341 11.9667 62.1608 11.5C63.0008 11.0333 63.9608 10.8 65.0408 10.8C66.0808 10.8 67.0074 11.0267 67.8208 11.48C68.6341 11.9333 69.2674 12.5733 69.7208 13.4C70.1741 14.2133 70.4008 15.1533 70.4008 16.22ZM68.0208 15.5C68.0074 14.66 67.7074 13.9867 67.1208 13.48C66.5341 12.9733 65.8074 12.72 64.9408 12.72C64.1541 12.72 63.4808 12.9733 62.9208 13.48C62.3608 13.9733 62.0274 14.6467 61.9208 15.5H68.0208Z" fill="#092652"/>
<path d="M80.1198 20.16H84.8198V22H77.8398V8.1H80.1198V20.16ZM87.8866 9.52C87.4732 9.52 87.1266 9.38 86.8466 9.1C86.5666 8.82 86.4266 8.47333 86.4266 8.06C86.4266 7.64667 86.5666 7.3 86.8466 7.02C87.1266 6.74 87.4732 6.6 87.8866 6.6C88.2866 6.6 88.6266 6.74 88.9066 7.02C89.1866 7.3 89.3266 7.64667 89.3266 8.06C89.3266 8.47333 89.1866 8.82 88.9066 9.1C88.6266 9.38 88.2866 9.52 87.8866 9.52ZM89.0066 10.98V22H86.7266V10.98H89.0066ZM97.56 10.8C98.4267 10.8 99.2 10.98 99.88 11.34C100.573 11.7 101.113 12.2333 101.5 12.94C101.887 13.6467 102.08 14.5 102.08 15.5V22H99.82V15.84C99.82 14.8533 99.5733 14.1 99.08 13.58C98.5867 13.0467 97.9133 12.78 97.06 12.78C96.2067 12.78 95.5267 13.0467 95.02 13.58C94.5267 14.1 94.28 14.8533 94.28 15.84V22H92V10.98H94.28V12.24C94.6533 11.7867 95.1267 11.4333 95.7 11.18C96.2867 10.9267 96.9067 10.8 97.56 10.8ZM115.088 16.22C115.088 16.6333 115.062 17.0067 115.008 17.34H106.588C106.655 18.22 106.982 18.9267 107.568 19.46C108.155 19.9933 108.875 20.26 109.728 20.26C110.955 20.26 111.822 19.7467 112.328 18.72H114.788C114.455 19.7333 113.848 20.5667 112.968 21.22C112.102 21.86 111.022 22.18 109.728 22.18C108.675 22.18 107.728 21.9467 106.888 21.48C106.062 21 105.408 20.3333 104.928 19.48C104.462 18.6133 104.228 17.6133 104.228 16.48C104.228 15.3467 104.455 14.3533 104.908 13.5C105.375 12.6333 106.022 11.9667 106.848 11.5C107.688 11.0333 108.648 10.8 109.728 10.8C110.768 10.8 111.695 11.0267 112.508 11.48C113.322 11.9333 113.955 12.5733 114.408 13.4C114.862 14.2133 115.088 15.1533 115.088 16.22ZM112.708 15.5C112.695 14.66 112.395 13.9867 111.808 13.48C111.222 12.9733 110.495 12.72 109.628 12.72C108.842 12.72 108.168 12.9733 107.608 13.48C107.048 13.9733 106.715 14.6467 106.608 15.5H112.708Z" fill="#E74C3C"/>
</g>
<defs>
<filter id="filter0_d_0_1" x="0" y="2" width="119.088" height="34.9627" filterUnits="userSpaceOnUse" color-interpolation-filters="sRGB">
<feFlood flood-opacity="0" result="BackgroundImageFix"/>
<feColorMatrix in="SourceAlpha" type="matrix" values="0 0 0 0 0 0 0 0 0 0 0 0 0 0 0 0 0 0 127 0" result="hardAlpha"/>
<feOffset dy="4"/>
<feGaussianBlur stdDeviation="2"/>
<feComposite in2="hardAlpha" operator="out"/>
<feColorMatrix type="matrix" values="0 0 0 0 0 0 0 0 0 0 0 0 0 0 0 0 0 0 0.25 0"/>
<feBlend mode="normal" in2="BackgroundImageFix" result="effect1_dropShadow_0_1"/>
<feBlend mode="normal" in="SourceGraphic" in2="effect1_dropShadow_0_1" result="shape"/>
</filter>
</defs>
</svg>
