<svg width="20" height="24" viewBox="0 0 20 24" fill="none" xmlns="http://www.w3.org/2000/svg">
<path d="M16.3209 12.7498C16.3317 11.8314 16.5754 10.9308 17.0291 10.1322C17.4828 9.33362 18.1318 8.66326 18.9153 8.18388C18.4173 7.47485 17.7618 6.89087 17.0002 6.47779C16.2386 6.06472 15.3916 5.83378 14.5257 5.80312C12.6562 5.61352 10.8778 6.9035 9.931 6.9035C8.98302 6.9035 7.52024 5.83072 5.97106 5.85952C4.95318 5.88763 3.96008 6.17982 3.08916 6.70742C2.21824 7.23502 1.4994 7.97992 1.00313 8.86907C-1.11124 12.541 0.464336 17.9805 2.52471 20.9601C3.53269 22.4169 4.73628 24.0573 6.31425 23.9985C7.83583 23.9385 8.40942 23.0145 10.2466 23.0145C12.0838 23.0145 12.601 23.9985 14.2065 23.9685C15.8433 23.9385 16.8813 22.4817 17.8809 21.0201C18.5973 19.9686 19.1571 18.8186 19.5429 17.6062C18.5903 17.1996 17.7777 16.5232 17.2051 15.6602C16.6326 14.7972 16.3252 13.7855 16.3209 12.7498ZM13.3006 3.83155C14.2062 2.76925 14.6548 1.39186 14.5485 0C13.1815 0.13302 11.9171 0.783881 11.0146 1.81917C10.5642 2.32074 10.2193 2.90784 10.0006 3.54549C9.78186 4.18314 9.69372 4.85829 9.74141 5.53072C10.4253 5.53994 11.1022 5.39144 11.7194 5.09676C12.3366 4.80208 12.8777 4.36915 13.3006 3.83155Z" fill="#363636"/>
</svg>
