<svg width="24" height="25" viewBox="0 0 24 25" fill="none" xmlns="http://www.w3.org/2000/svg">
<path d="M12 24C5.3736 24 0 18.6264 0 12C0 5.3736 5.3736 0 12 0C18.6264 0 24 5.3736 24 12C24 18.6264 18.6264 24 12 24Z" fill="#3B579D"/>
<path d="M13.8688 24.3736V15.0784H16.9888L17.4568 11.4568H13.8688V9.1432C13.8688 8.0944 14.1592 7.3792 15.664 7.3792H17.5816V4.1416C17.2504 4.0984 16.1104 4 14.7856 4C12.0208 4 10.1272 5.6872 10.1272 8.788V11.4592H7V15.0808H10.1272V24.3736H13.8688Z" fill="white"/>
</svg>
