<svg width="77" height="17" viewBox="0 0 77 17" fill="none" xmlns="http://www.w3.org/2000/svg">
<path d="M2.78 14.16H7.48V16H0.5V2.1H2.78V14.16ZM10.5467 3.52C10.1334 3.52 9.78672 3.38 9.50672 3.1C9.22672 2.82 9.08672 2.47333 9.08672 2.06C9.08672 1.64667 9.22672 1.3 9.50672 1.02C9.78672 0.739999 10.1334 0.599999 10.5467 0.599999C10.9467 0.599999 11.2867 0.739999 11.5667 1.02C11.8467 1.3 11.9867 1.64667 11.9867 2.06C11.9867 2.47333 11.8467 2.82 11.5667 3.1C11.2867 3.38 10.9467 3.52 10.5467 3.52ZM11.6667 4.98V16H9.38672V4.98H11.6667ZM19.2802 6.84H17.2402V16H14.9402V6.84H13.6402V4.98H14.9402V4.2C14.9402 2.93333 15.2735 2.01333 15.9402 1.44C16.6202 0.853333 17.6802 0.56 19.1202 0.56V2.46C18.4268 2.46 17.9402 2.59333 17.6602 2.86C17.3802 3.11333 17.2402 3.56 17.2402 4.2V4.98H19.2802V6.84ZM31.4008 10.22C31.4008 10.6333 31.3741 11.0067 31.3208 11.34H22.9008C22.9674 12.22 23.2941 12.9267 23.8808 13.46C24.4674 13.9933 25.1874 14.26 26.0408 14.26C27.2674 14.26 28.1341 13.7467 28.6408 12.72H31.1008C30.7674 13.7333 30.1608 14.5667 29.2808 15.22C28.4141 15.86 27.3341 16.18 26.0408 16.18C24.9874 16.18 24.0408 15.9467 23.2008 15.48C22.3741 15 21.7208 14.3333 21.2408 13.48C20.7741 12.6133 20.5408 11.6133 20.5408 10.48C20.5408 9.34667 20.7674 8.35333 21.2208 7.5C21.6874 6.63333 22.3341 5.96667 23.1608 5.5C24.0008 5.03333 24.9608 4.8 26.0408 4.8C27.0808 4.8 28.0074 5.02667 28.8208 5.48C29.6341 5.93333 30.2674 6.57333 30.7208 7.4C31.1741 8.21333 31.4008 9.15333 31.4008 10.22ZM29.0208 9.5C29.0074 8.66 28.7074 7.98667 28.1208 7.48C27.5341 6.97333 26.8074 6.72 25.9408 6.72C25.1541 6.72 24.4808 6.97333 23.9208 7.48C23.3608 7.97333 23.0274 8.64667 22.9208 9.5H29.0208Z" fill="#092652"/>
<path d="M41.1198 14.16H45.8198V16H38.8398V2.1H41.1198V14.16ZM48.8866 3.52C48.4732 3.52 48.1266 3.38 47.8466 3.1C47.5666 2.82 47.4266 2.47333 47.4266 2.06C47.4266 1.64667 47.5666 1.3 47.8466 1.02C48.1266 0.739999 48.4732 0.599999 48.8866 0.599999C49.2866 0.599999 49.6266 0.739999 49.9066 1.02C50.1866 1.3 50.3266 1.64667 50.3266 2.06C50.3266 2.47333 50.1866 2.82 49.9066 3.1C49.6266 3.38 49.2866 3.52 48.8866 3.52ZM50.0066 4.98V16H47.7266V4.98H50.0066ZM58.56 4.8C59.4267 4.8 60.2 4.98 60.88 5.34C61.5733 5.7 62.1133 6.23333 62.5 6.94C62.8867 7.64667 63.08 8.5 63.08 9.5V16H60.82V9.84C60.82 8.85333 60.5733 8.1 60.08 7.58C59.5867 7.04667 58.9133 6.78 58.06 6.78C57.2067 6.78 56.5267 7.04667 56.02 7.58C55.5267 8.1 55.28 8.85333 55.28 9.84V16H53V4.98H55.28V6.24C55.6533 5.78667 56.1267 5.43333 56.7 5.18C57.2867 4.92667 57.9067 4.8 58.56 4.8ZM76.0883 10.22C76.0883 10.6333 76.0616 11.0067 76.0083 11.34H67.5883C67.6549 12.22 67.9816 12.9267 68.5683 13.46C69.1549 13.9933 69.8749 14.26 70.7283 14.26C71.9549 14.26 72.8216 13.7467 73.3283 12.72H75.7883C75.4549 13.7333 74.8483 14.5667 73.9683 15.22C73.1016 15.86 72.0216 16.18 70.7283 16.18C69.6749 16.18 68.7283 15.9467 67.8883 15.48C67.0616 15 66.4083 14.3333 65.9283 13.48C65.4616 12.6133 65.2283 11.6133 65.2283 10.48C65.2283 9.34667 65.4549 8.35333 65.9083 7.5C66.3749 6.63333 67.0216 5.96667 67.8483 5.5C68.6883 5.03333 69.6483 4.8 70.7283 4.8C71.7683 4.8 72.6949 5.02667 73.5083 5.48C74.3216 5.93333 74.9549 6.57333 75.4083 7.4C75.8616 8.21333 76.0883 9.15333 76.0883 10.22ZM73.7083 9.5C73.6949 8.66 73.3949 7.98667 72.8083 7.48C72.2216 6.97333 71.4949 6.72 70.6283 6.72C69.8416 6.72 69.1683 6.97333 68.6083 7.48C68.0483 7.97333 67.7149 8.64667 67.6083 9.5H73.7083Z" fill="#E74C3C"/>
</svg>
