<svg width="27" height="27" viewBox="0 0 27 27" fill="none" xmlns="http://www.w3.org/2000/svg">
<path d="M1.15047 9.84211V8.97816H10.7459C11.7 8.97828 12.6447 9.16621 13.5261 9.53123C14.4076 9.89625 15.2084 10.4312 15.883 11.1055C16.5576 11.7799 17.0926 12.5804 17.4576 13.4614C17.8226 14.3425 18.0104 15.2867 18.0103 16.2402V17.1169H19.1635V16.2066C19.1635 15.1058 18.9466 14.0157 18.525 12.9988C18.1035 11.9818 17.4857 11.0577 16.7068 10.2794C15.9279 9.50104 15.0033 8.88365 13.9857 8.46248C12.968 8.0413 11.8774 7.82459 10.776 7.82471H0.41446C0.360032 7.82471 0.306138 7.83542 0.255853 7.85624C0.205568 7.87705 0.159879 7.90757 0.121393 7.94603C0.082907 7.98449 0.0523784 8.03016 0.0315499 8.08041C0.0107213 8.13067 0 8.18453 0 8.23893V17.4793C0 17.615 0.0539361 17.7451 0.149941 17.841C0.245946 17.937 0.376156 17.9909 0.511927 17.9909H7.41655C7.62529 17.991 7.83196 18.0322 8.02477 18.1122C8.21757 18.1921 8.39273 18.3092 8.54025 18.4568C8.68776 18.6044 8.80475 18.7796 8.88452 18.9724C8.96429 19.1652 9.00528 19.3718 9.00516 19.5804V26.4456C9.00541 26.5828 9.06012 26.7143 9.15729 26.8113C9.25447 26.9082 9.38616 26.9627 9.52347 26.9627H18.6461C18.7833 26.9624 18.9147 26.9079 19.0117 26.811C19.1087 26.714 19.1633 26.5826 19.1635 26.4456V18.0182H18.0103V25.812H17.2962H16.143H10.1584V19.3993C10.1584 18.7203 9.8885 18.0692 9.40813 17.5891C8.92777 17.109 8.27625 16.8393 7.59691 16.8393H1.15047V10.9946" fill="#092652"/>
<path d="M18.1082 17.1186H19.0191V15.966H18.1401C16.4727 15.9655 14.8561 15.3923 13.5611 14.3426C12.2662 13.2928 11.3714 11.8302 11.0268 10.1997H9.84814C10.1926 12.1389 11.2092 13.895 12.7195 15.1601C14.2298 16.4252 16.1376 17.1185 18.1082 17.1186Z" fill="#092652"/>
<path d="M17.9949 7.38408V0.518005C17.995 0.450023 17.9817 0.382683 17.9557 0.319841C17.9298 0.256999 17.8917 0.199886 17.8436 0.151773C17.7956 0.10366 17.7385 0.0654918 17.6757 0.0394484C17.6128 0.0134051 17.5455 -1.05358e-07 17.4775 0H8.35479C8.28677 -1.05358e-07 8.21942 0.0134051 8.15659 0.0394484C8.09375 0.0654918 8.03668 0.10366 7.98862 0.151773C7.94057 0.199886 7.90247 0.256999 7.87652 0.319841C7.85058 0.382683 7.83728 0.450023 7.8374 0.518005V10.7552C7.83728 11.8561 8.05415 12.9462 8.47563 13.9633C8.8971 14.9804 9.51492 15.9045 10.2938 16.683C11.0727 17.4614 11.9974 18.0789 13.015 18.5001C14.0327 18.9213 15.1235 19.1381 16.225 19.138H26.5856C26.6955 19.138 26.8009 19.0943 26.8786 19.0166C26.9564 18.939 27 18.8336 27 18.7237V9.48341C27 9.34811 26.9463 9.21835 26.8507 9.1226C26.755 9.02684 26.6253 8.97293 26.4899 8.97269H19.5844C19.1628 8.97269 18.7585 8.80532 18.4604 8.50739C18.1623 8.20947 17.9949 7.8054 17.9949 7.38408ZM25.8468 15.9689H19.8449V17.1215H25.8468V17.9854H16.2559C15.3016 17.9854 14.3566 17.7975 13.475 17.4324C12.5933 17.0674 11.7923 16.5323 11.1176 15.8577C10.4429 15.1832 9.90782 14.3824 9.54286 13.5011C9.1779 12.6198 8.99024 11.6753 8.9906 10.7215V1.15163H9.70475V7.02994H10.8579V1.15163H16.8417V7.56342C16.8417 7.89968 16.9079 8.23264 17.0367 8.54329C17.1655 8.85394 17.3543 9.1362 17.5922 9.37392C17.8302 9.61165 18.1126 9.8002 18.4235 9.9288C18.7344 10.0574 19.0676 10.1235 19.404 10.1234H25.8468V15.9689Z" fill="#E74C3C"/>
</svg>
