<svg width="83" height="83" viewBox="0 0 83 83" fill="none" xmlns="http://www.w3.org/2000/svg">
<g clip-path="url(#clip0_9_48)">
<path d="M3.53662 30.2555V27.5997H33.0336C35.9666 27.6001 38.8708 28.1778 41.5803 29.2999C44.2899 30.422 46.7518 32.0665 48.8255 34.1395C50.8991 36.2125 52.5439 38.6733 53.666 41.3816C54.7881 44.0899 55.3654 46.9926 55.365 49.9239V52.6189H58.91V49.8203C58.91 46.4364 58.2431 43.0856 56.9473 39.9593C55.6515 36.833 53.7522 33.9924 51.3579 31.5997C48.9636 29.2071 46.1212 27.3092 42.9929 26.0145C39.8647 24.7198 36.5119 24.0536 33.126 24.0539H1.27408C1.10677 24.0539 0.941089 24.0869 0.78651 24.1509C0.631932 24.2148 0.49148 24.3086 0.373171 24.4269C0.254862 24.5451 0.161015 24.6855 0.0969866 24.84C0.0329581 24.9945 0 25.1601 0 25.3273V53.7327C0 54.1499 0.165803 54.5499 0.460929 54.8449C0.756054 55.1398 1.15633 55.3055 1.5737 55.3055H22.799C23.4407 55.3059 24.076 55.4326 24.6687 55.6783C25.2614 55.9241 25.7999 56.2841 26.2533 56.7378C26.7068 57.1916 27.0664 57.7301 27.3116 58.3228C27.5568 58.9154 27.6829 59.5505 27.6825 60.1918V81.2958C27.6833 81.7176 27.8514 82.122 28.1502 82.42C28.4489 82.718 28.8537 82.8854 29.2758 82.8854H57.3195C57.7411 82.8847 58.1452 82.7169 58.4434 82.419C58.7415 82.121 58.9093 81.7171 58.91 81.2958V55.3895H55.365V79.348H53.1697H49.6247H31.2275V59.6349C31.2275 57.5478 30.3979 55.5461 28.9213 54.0703C27.4446 52.5944 25.4418 51.7653 23.3534 51.7653H3.53662V33.7985" fill="#092652"/>
<path d="M55.6655 52.6241H58.4657V49.0812H55.7635C50.6378 49.0795 45.6683 47.3175 41.6875 44.0905C37.7067 40.8634 34.9563 36.3672 33.897 31.355H30.2735C31.3325 37.3162 34.4574 42.7146 39.1003 46.6036C43.7431 50.4926 49.6076 52.624 55.6655 52.6241Z" fill="#092652"/>
<path d="M55.3175 22.6992V1.59239C55.3179 1.3834 55.277 1.17639 55.1972 0.983213C55.1175 0.790033 55.0004 0.614465 54.8527 0.466562C54.7049 0.318658 54.5295 0.201326 54.3363 0.121267C54.1432 0.0412081 53.9361 -3.23877e-07 53.727 0H25.6833C25.4742 -3.23877e-07 25.2671 0.0412081 25.074 0.121267C24.8808 0.201326 24.7054 0.318658 24.5576 0.466562C24.4099 0.614465 24.2928 0.790033 24.2131 0.983213C24.1333 1.17639 24.0924 1.3834 24.0928 1.59239V33.0623C24.0924 36.4464 24.7591 39.7975 26.0547 42.9241C27.3504 46.0508 29.2496 48.8917 31.6439 51.2847C34.0383 53.6776 36.8808 55.5758 40.0092 56.8707C43.1377 58.1655 46.4907 58.8318 49.8768 58.8315H81.7259C82.0639 58.8315 82.3879 58.6973 82.6269 58.4585C82.8658 58.2197 83 57.8958 83 57.5581V29.1527C83 28.7368 82.8349 28.3379 82.5409 28.0435C82.2469 27.7492 81.8481 27.5834 81.4319 27.5827H60.2038C58.9079 27.5827 57.665 27.0682 56.7487 26.1523C55.8323 25.2365 55.3175 23.9944 55.3175 22.6992ZM79.455 49.0897H61.0047V52.6326H79.455V55.2885H49.972C47.0383 55.2885 44.1334 54.7108 41.4231 53.5886C38.7129 52.4663 36.2504 50.8214 34.1764 48.7477C32.1023 46.6741 30.4574 44.2124 29.3355 41.5033C28.2136 38.7942 27.6367 35.8907 27.6378 32.9587V3.54018H29.8331V21.6105H33.3782V3.54018H51.7725V23.2505C51.7725 24.2842 51.9763 25.3077 52.3721 26.2627C52.768 27.2176 53.3483 28.0853 54.0798 28.8161C54.8112 29.5469 55.6796 30.1265 56.6352 30.5218C57.5909 30.9171 58.6151 31.1204 59.6494 31.1201H79.455V49.0897Z" fill="#FF424B"/>
</g>
<defs>
<clipPath id="clip0_9_48">
<rect width="83" height="83" fill="white"/>
</clipPath>
</defs>
</svg>
